<mxfile host="app.diagrams.net" agent="Mozilla/5.0 (Windows NT 10.0; Win64; x64) AppleWebKit/537.36 (KHTML, like Gecko) Chrome/140.0.0.0 Safari/537.36" version="28.2.3">
  <diagram name="Page-1" id="GlQHMHKZQbSNpfvf66mj">
    <mxGraphModel dx="1042" dy="535" grid="1" gridSize="10" guides="1" tooltips="1" connect="1" arrows="1" fold="1" page="1" pageScale="1" pageWidth="827" pageHeight="1169" math="0" shadow="0">
      <root>
        <mxCell id="0" />
        <mxCell id="1" parent="0" />
        <mxCell id="z1C9xNttWJipa0ZgBpVq-1" value="" style="rounded=0;whiteSpace=wrap;html=1;fillColor=none;dashed=1;" parent="1" vertex="1">
          <mxGeometry x="50" y="90" width="190" height="390" as="geometry" />
        </mxCell>
        <mxCell id="z1C9xNttWJipa0ZgBpVq-2" value="Sources" style="rounded=1;whiteSpace=wrap;html=1;fontSize=24;strokeColor=none;" parent="1" vertex="1">
          <mxGeometry x="85" y="80" width="120" height="40" as="geometry" />
        </mxCell>
        <mxCell id="z1C9xNttWJipa0ZgBpVq-14" style="edgeStyle=orthogonalEdgeStyle;rounded=0;orthogonalLoop=1;jettySize=auto;html=1;" parent="1" source="z1C9xNttWJipa0ZgBpVq-3" target="z1C9xNttWJipa0ZgBpVq-10" edge="1">
          <mxGeometry relative="1" as="geometry" />
        </mxCell>
        <mxCell id="z1C9xNttWJipa0ZgBpVq-15" style="edgeStyle=orthogonalEdgeStyle;rounded=0;orthogonalLoop=1;jettySize=auto;html=1;entryX=0;entryY=0.75;entryDx=0;entryDy=0;" parent="1" source="z1C9xNttWJipa0ZgBpVq-3" target="z1C9xNttWJipa0ZgBpVq-8" edge="1">
          <mxGeometry relative="1" as="geometry">
            <Array as="points">
              <mxPoint x="270" y="230" />
              <mxPoint x="270" y="190" />
            </Array>
          </mxGeometry>
        </mxCell>
        <mxCell id="z1C9xNttWJipa0ZgBpVq-3" value="CRM" style="image;aspect=fixed;html=1;points=[];align=center;fontSize=24;image=img/lib/azure2/general/Folder_Blank.svg;" parent="1" vertex="1">
          <mxGeometry x="108.04" y="200" width="73.93" height="60" as="geometry" />
        </mxCell>
        <mxCell id="z1C9xNttWJipa0ZgBpVq-17" style="edgeStyle=orthogonalEdgeStyle;rounded=0;orthogonalLoop=1;jettySize=auto;html=1;entryX=0;entryY=0.75;entryDx=0;entryDy=0;" parent="1" source="z1C9xNttWJipa0ZgBpVq-4" target="z1C9xNttWJipa0ZgBpVq-5" edge="1">
          <mxGeometry relative="1" as="geometry" />
        </mxCell>
        <mxCell id="z1C9xNttWJipa0ZgBpVq-18" style="edgeStyle=orthogonalEdgeStyle;rounded=0;orthogonalLoop=1;jettySize=auto;html=1;entryX=0;entryY=0.5;entryDx=0;entryDy=0;" parent="1" source="z1C9xNttWJipa0ZgBpVq-4" target="z1C9xNttWJipa0ZgBpVq-11" edge="1">
          <mxGeometry relative="1" as="geometry">
            <Array as="points">
              <mxPoint x="270" y="400" />
              <mxPoint x="270" y="350" />
            </Array>
          </mxGeometry>
        </mxCell>
        <mxCell id="z1C9xNttWJipa0ZgBpVq-4" value="ERP" style="image;aspect=fixed;html=1;points=[];align=center;fontSize=24;image=img/lib/azure2/general/Folder_Blank.svg;" parent="1" vertex="1">
          <mxGeometry x="111" y="370" width="73.93" height="60" as="geometry" />
        </mxCell>
        <mxCell id="z1C9xNttWJipa0ZgBpVq-5" value="" style="rounded=0;whiteSpace=wrap;html=1;fillColor=#ffe6cc;strokeColor=#d79b00;fillStyle=hatch;" parent="1" vertex="1">
          <mxGeometry x="340" y="130" width="190" height="360" as="geometry" />
        </mxCell>
        <mxCell id="z1C9xNttWJipa0ZgBpVq-7" value="&lt;font style=&quot;font-size: 20px;&quot;&gt;Bronze Layer&lt;/font&gt;" style="rounded=1;whiteSpace=wrap;html=1;fillColor=#ffe6cc;strokeColor=#d79b00;gradientColor=none;fontStyle=1" parent="1" vertex="1">
          <mxGeometry x="340" y="80" width="190" height="40" as="geometry" />
        </mxCell>
        <mxCell id="z1C9xNttWJipa0ZgBpVq-8" value="&lt;font style=&quot;font-size: 16px;&quot;&gt;crm_sales_details&lt;/font&gt;" style="rounded=1;whiteSpace=wrap;html=1;fillColor=#ffe6cc;strokeColor=#d79b00;fontStyle=0" parent="1" vertex="1">
          <mxGeometry x="350" y="160" width="170" height="40" as="geometry" />
        </mxCell>
        <mxCell id="z1C9xNttWJipa0ZgBpVq-9" value="&lt;font style=&quot;font-size: 16px;&quot;&gt;crm_prd_info&lt;/font&gt;" style="rounded=1;whiteSpace=wrap;html=1;fillColor=#ffe6cc;strokeColor=#d79b00;fontStyle=0" parent="1" vertex="1">
          <mxGeometry x="350" y="260" width="170" height="40" as="geometry" />
        </mxCell>
        <mxCell id="z1C9xNttWJipa0ZgBpVq-10" value="&lt;font style=&quot;font-size: 16px;&quot;&gt;crm_cust_info&lt;/font&gt;" style="rounded=1;whiteSpace=wrap;html=1;fillColor=#ffe6cc;strokeColor=#d79b00;fontStyle=0" parent="1" vertex="1">
          <mxGeometry x="350" y="210" width="170" height="40" as="geometry" />
        </mxCell>
        <mxCell id="z1C9xNttWJipa0ZgBpVq-11" value="&lt;font style=&quot;font-size: 16px;&quot;&gt;erp_loc_a101&lt;/font&gt;" style="rounded=1;whiteSpace=wrap;html=1;fillColor=#ffe6cc;strokeColor=#d79b00;fontStyle=0" parent="1" vertex="1">
          <mxGeometry x="350" y="330" width="170" height="40" as="geometry" />
        </mxCell>
        <mxCell id="z1C9xNttWJipa0ZgBpVq-12" value="&lt;font style=&quot;font-size: 16px;&quot;&gt;erp_px_cat_g1v2&lt;/font&gt;" style="rounded=1;whiteSpace=wrap;html=1;fillColor=#ffe6cc;strokeColor=#d79b00;fontStyle=0" parent="1" vertex="1">
          <mxGeometry x="350" y="430" width="170" height="40" as="geometry" />
        </mxCell>
        <mxCell id="z1C9xNttWJipa0ZgBpVq-13" value="&lt;font style=&quot;font-size: 16px;&quot;&gt;erp_cust_az12&lt;/font&gt;" style="rounded=1;whiteSpace=wrap;html=1;fillColor=#ffe6cc;strokeColor=#d79b00;fontStyle=0" parent="1" vertex="1">
          <mxGeometry x="350" y="380" width="170" height="40" as="geometry" />
        </mxCell>
        <mxCell id="z1C9xNttWJipa0ZgBpVq-16" style="edgeStyle=orthogonalEdgeStyle;rounded=0;orthogonalLoop=1;jettySize=auto;html=1;entryX=0.015;entryY=0.4;entryDx=0;entryDy=0;entryPerimeter=0;" parent="1" source="z1C9xNttWJipa0ZgBpVq-3" target="z1C9xNttWJipa0ZgBpVq-5" edge="1">
          <mxGeometry relative="1" as="geometry">
            <Array as="points">
              <mxPoint x="270" y="230" />
              <mxPoint x="270" y="280" />
              <mxPoint x="343" y="280" />
            </Array>
          </mxGeometry>
        </mxCell>
        <mxCell id="z1C9xNttWJipa0ZgBpVq-21" style="edgeStyle=orthogonalEdgeStyle;rounded=0;orthogonalLoop=1;jettySize=auto;html=1;entryX=-0.006;entryY=0.896;entryDx=0;entryDy=0;entryPerimeter=0;" parent="1" source="z1C9xNttWJipa0ZgBpVq-4" target="z1C9xNttWJipa0ZgBpVq-5" edge="1">
          <mxGeometry relative="1" as="geometry">
            <Array as="points">
              <mxPoint x="270" y="400" />
              <mxPoint x="270" y="453" />
            </Array>
          </mxGeometry>
        </mxCell>
        <mxCell id="VRyX_9SaCpgKUKgdgU51-1" value="&lt;font style=&quot;font-size: 20px;&quot;&gt;Silver Layer&lt;/font&gt;" style="rounded=1;whiteSpace=wrap;html=1;fillColor=#f5f5f5;strokeColor=#666666;fontStyle=1;fontColor=#333333;" parent="1" vertex="1">
          <mxGeometry x="580" y="80" width="190" height="40" as="geometry" />
        </mxCell>
        <mxCell id="VRyX_9SaCpgKUKgdgU51-2" value="&lt;font style=&quot;font-size: 16px;&quot;&gt;crm_sales_details&lt;/font&gt;" style="rounded=1;whiteSpace=wrap;html=1;fillColor=#f5f5f5;strokeColor=#666666;fontStyle=0;fontColor=#333333;" parent="1" vertex="1">
          <mxGeometry x="590" y="160" width="170" height="40" as="geometry" />
        </mxCell>
        <mxCell id="VRyX_9SaCpgKUKgdgU51-3" value="&lt;font style=&quot;font-size: 16px;&quot;&gt;crm_prd_info&lt;/font&gt;" style="rounded=1;whiteSpace=wrap;html=1;fillColor=#f5f5f5;strokeColor=#666666;fontStyle=0;fontColor=#333333;" parent="1" vertex="1">
          <mxGeometry x="590" y="260" width="170" height="40" as="geometry" />
        </mxCell>
        <mxCell id="VRyX_9SaCpgKUKgdgU51-4" value="&lt;font style=&quot;font-size: 16px;&quot;&gt;crm_cust_info&lt;/font&gt;" style="rounded=1;whiteSpace=wrap;html=1;fillColor=#f5f5f5;strokeColor=#666666;fontStyle=0;fontColor=#333333;" parent="1" vertex="1">
          <mxGeometry x="590" y="210" width="170" height="40" as="geometry" />
        </mxCell>
        <mxCell id="VRyX_9SaCpgKUKgdgU51-5" value="&lt;font style=&quot;font-size: 16px;&quot;&gt;erp_loc_a101&lt;/font&gt;" style="rounded=1;whiteSpace=wrap;html=1;fillColor=#f5f5f5;strokeColor=#666666;fontStyle=0;fontColor=#333333;" parent="1" vertex="1">
          <mxGeometry x="590" y="330" width="170" height="40" as="geometry" />
        </mxCell>
        <mxCell id="VRyX_9SaCpgKUKgdgU51-6" value="&lt;font style=&quot;font-size: 16px;&quot;&gt;erp_px_cat_g1v2&lt;/font&gt;" style="rounded=1;whiteSpace=wrap;html=1;fillColor=#f5f5f5;strokeColor=#666666;fontStyle=0;fontColor=#333333;" parent="1" vertex="1">
          <mxGeometry x="590" y="430" width="170" height="40" as="geometry" />
        </mxCell>
        <mxCell id="VRyX_9SaCpgKUKgdgU51-7" value="&lt;font style=&quot;font-size: 16px;&quot;&gt;erp_cust_az12&lt;/font&gt;" style="rounded=1;whiteSpace=wrap;html=1;fillColor=#f5f5f5;strokeColor=#666666;fontStyle=0;fontColor=#333333;" parent="1" vertex="1">
          <mxGeometry x="590" y="380" width="170" height="40" as="geometry" />
        </mxCell>
        <mxCell id="VRyX_9SaCpgKUKgdgU51-8" value="" style="rounded=0;whiteSpace=wrap;html=1;fillColor=#f5f5f5;strokeColor=#666666;fillStyle=hatch;fontColor=#333333;" parent="1" vertex="1">
          <mxGeometry x="580" y="130" width="190" height="360" as="geometry" />
        </mxCell>
        <mxCell id="VRyX_9SaCpgKUKgdgU51-11" style="edgeStyle=orthogonalEdgeStyle;rounded=0;orthogonalLoop=1;jettySize=auto;html=1;entryX=0.011;entryY=0.142;entryDx=0;entryDy=0;entryPerimeter=0;" parent="1" source="z1C9xNttWJipa0ZgBpVq-8" target="VRyX_9SaCpgKUKgdgU51-8" edge="1">
          <mxGeometry relative="1" as="geometry" />
        </mxCell>
        <mxCell id="VRyX_9SaCpgKUKgdgU51-12" style="edgeStyle=orthogonalEdgeStyle;rounded=0;orthogonalLoop=1;jettySize=auto;html=1;entryX=0.015;entryY=0.28;entryDx=0;entryDy=0;entryPerimeter=0;" parent="1" source="z1C9xNttWJipa0ZgBpVq-10" target="VRyX_9SaCpgKUKgdgU51-8" edge="1">
          <mxGeometry relative="1" as="geometry" />
        </mxCell>
        <mxCell id="VRyX_9SaCpgKUKgdgU51-13" style="edgeStyle=orthogonalEdgeStyle;rounded=0;orthogonalLoop=1;jettySize=auto;html=1;entryX=0.019;entryY=0.413;entryDx=0;entryDy=0;entryPerimeter=0;" parent="1" source="z1C9xNttWJipa0ZgBpVq-9" target="VRyX_9SaCpgKUKgdgU51-8" edge="1">
          <mxGeometry relative="1" as="geometry" />
        </mxCell>
        <mxCell id="VRyX_9SaCpgKUKgdgU51-14" style="edgeStyle=orthogonalEdgeStyle;rounded=0;orthogonalLoop=1;jettySize=auto;html=1;entryX=0.019;entryY=0.611;entryDx=0;entryDy=0;entryPerimeter=0;" parent="1" source="z1C9xNttWJipa0ZgBpVq-11" target="VRyX_9SaCpgKUKgdgU51-8" edge="1">
          <mxGeometry relative="1" as="geometry" />
        </mxCell>
        <mxCell id="VRyX_9SaCpgKUKgdgU51-15" style="edgeStyle=orthogonalEdgeStyle;rounded=0;orthogonalLoop=1;jettySize=auto;html=1;entryX=0.053;entryY=0.75;entryDx=0;entryDy=0;entryPerimeter=0;" parent="1" source="z1C9xNttWJipa0ZgBpVq-13" target="VRyX_9SaCpgKUKgdgU51-8" edge="1">
          <mxGeometry relative="1" as="geometry" />
        </mxCell>
        <mxCell id="VRyX_9SaCpgKUKgdgU51-16" style="edgeStyle=orthogonalEdgeStyle;rounded=0;orthogonalLoop=1;jettySize=auto;html=1;entryX=0.053;entryY=0.917;entryDx=0;entryDy=0;entryPerimeter=0;" parent="1" source="z1C9xNttWJipa0ZgBpVq-12" target="VRyX_9SaCpgKUKgdgU51-8" edge="1">
          <mxGeometry relative="1" as="geometry" />
        </mxCell>
      </root>
    </mxGraphModel>
  </diagram>
</mxfile>
